<svg id="Front" xmlns="http://www.w3.org/2000/svg" width="50" height="100" viewBox="0 500 1000 1000">
  <defs>
    <style>
      .cls-1 {
        fill: #d64394;
      }

      .cls-1, .cls-2, .cls-3, .cls-4, .cls-5, .cls-6, .cls-7, .cls-9 {
        fill-rule: evenodd;
      }

      .cls-2 {
        fill: #bc3987;
      }

      .cls-3 {
        fill: none;
        stroke: #333;
        stroke-linecap: round;
        stroke-linejoin: round;
        stroke-width: 34px;
      }

      .cls-4 {
        fill: #9ad14b;
      }

      .cls-5 {
        fill: #333;
      }

      .cls-6, .cls-7, .cls-8 {
        fill: #fff;
      }

      .cls-7, .cls-8 {
        stroke: #363636;
        stroke-width: 22px;
      }

      .cls-9 {
        fill: #363636;
      }
    </style>
  </defs>
  <path id="colour" class="cls-1" d="M849.438,386.821c67.972,28.018,102.741,120.827,30.4,191.293,61.266,94.515-19.949,178.531-77.894,181.823C813.564,830.229,749.8,900.825,668,888.728c-31.994,78.431-109.8,99.457-167.187,69.131-56.194,29.6-141.877,13.006-166.237-68.184C247.95,902.464,171.63,840.561,197.79,760.884c-96.277-11.741-126.459-130.308-75.044-180.876-56.573-35.645-65.812-157.016,26.6-194.134-22.65-54.87,6.13-153.269,107.341-155.307,28.452-97.24,155.135-138.506,227.032-42.615,14.565-1.464,20.081.441,35.147,0C568.781,105.479,705.273,115.862,744,229.62,836.178,233.073,874.564,315.993,849.438,386.821Z"/>
  <path id="shade" class="cls-2" d="M306.863,580.855C259.16,547.732,246.259,530.3,264,452c6.014-26.541,56.921-77.709,76.219-97.059,4.19-3.27,59.79-40.959,118.781,23.059,71.507,77.6,184.537,142.471,224,139,33.287-4.73,68.591-196.074,54-293-12.679-36.5-38.5-62.46-91-72-51.594-9.376-108.806,26.292-139,57-30.881-27.173-95.273-78.226-159-63-63.127,15.082-81.611,70.411-79,105-82.481-4.694-137.061,64.22-95,148C64.874,423.148,68.606,538.789,144,579c-70.734,55.332-38.332,165.215,80,176-26.41,86.32,37.9,142.623,121,116,9.06,30.276,24.221,58.454,43,74,28.075,23.241,69.35,21.737,113-1,11.527,17.414,35.361,21.512,62.859,21.512v-0.731c-40.816-20.936-43.914-27.469-45.543-76.824-101.625,23.731-167.375-55.785-125.582-133.715C361.215,752.773,345.85,765.78,291,721,258.941,670.839,278.434,613.77,306.863,580.855Z"/>
  <path id="outline" class="cls-3" d="M849.438,386.821c67.972,28.018,102.741,120.827,30.4,191.293,61.266,94.515-19.949,178.531-77.894,181.823C813.564,830.229,749.8,900.825,668,888.728c-31.994,78.431-109.8,99.457-167.187,69.131-56.194,29.6-141.877,13.006-166.237-68.184C247.95,902.464,171.63,840.561,197.79,760.884c-96.277-11.741-126.459-130.308-75.044-180.876-56.573-35.645-65.812-157.016,26.6-194.134-22.65-54.87,6.13-153.269,107.341-155.307,28.452-97.24,155.135-138.506,227.032-42.615,14.565-1.464,20.081.441,35.147,0C568.781,105.479,705.273,115.862,744,229.62,836.178,233.073,874.564,315.993,849.438,386.821Z"/>
  <path id="leaves" class="cls-4" d="M690.285,499s45.858-115.754,38.843-216c-2.2-51.574-1.084-44.273-19.92-81s-71.71-49-71.71-49a114.817,114.817,0,0,0-47.807,5s33.393,21.543,48.8,34,40.921,57.168,39.839,108c0.043,11.652-17.469,20.223-31.871,10-6.09-15.219-11.666-62.342-27.887-90-12.289-20.953-33.6-27.469-51.791-23-13.138,3.227-50.937,12.106-46.811,58,1.738,19.336,5.087,36.113,58.763,121S690.285,499,690.285,499ZM479.138,252l-13.944-43s-32.882-21.773-56.77-11-32.229,33.477-35.855,45-12.337,26.438-15.936,54c-2.6,18.473-15.5,19.1-24.9,17s-9.1-5.711-10.956-16,12.936-138.494,91.63-137c-11.816-10.143-19.476-14.186-48.8-10s-57.6,25.779-77.686,55c-16.161,25.209-15.9,58.207-15.936,111,4.969,119.41,39.839,181,39.839,181s55.137-37.309,93.622-94S479.138,252,479.138,252Z"/>
  <path id="leaves_outline" data-name="leaves outline" class="cls-5" d="M692,541s-51.372-28.316-101-89c-46.789-57.213-92-147-92-147s-29.423,79.062-71,130c-52.612,64.456-120,104-120,104s-10.812,5-18-1-39.473-72.779-50-146-5.867-119.693-1-138-7.84-18.127,23-75,99.9-65.451,125-65,74.754,20.725,94,47c-0.539-44.764,2-119,2-119s7.715-10.686,19-11,17,13,17,13l-2,120s22.391-31.35,72-43,82.516-5.721,108,13,47.07,40.588,59,82c6.011,20.867,13.774,84.285,7.142,150.465C756.613,431.626,735.915,499.464,713,532,706.309,541.623,692,541,692,541Zm-1.715-42s45.858-115.754,38.843-216c-2.2-51.574-1.084-44.273-19.92-81s-71.71-49-71.71-49a114.817,114.817,0,0,0-47.807,5s33.393,21.543,48.8,34,40.921,57.168,39.839,108c0.043,11.652-17.469,20.223-31.871,10-6.09-15.219-11.666-62.342-27.887-90-12.289-20.953-33.6-27.469-51.791-23-13.138,3.227-50.937,12.106-46.811,58,1.738,19.336,5.087,36.113,58.763,121S690.285,499,690.285,499ZM479.138,252l-13.944-43s-32.882-21.773-56.77-11-32.229,33.477-35.855,45-12.337,26.438-15.936,54c-2.6,18.473-15.5,19.1-24.9,17s-9.1-5.711-10.956-16,12.936-138.494,91.63-137c-11.816-10.143-19.476-14.186-48.8-10s-57.6,25.779-77.686,55c-16.161,25.209-15.9,58.207-15.936,111,4.969,119.41,39.839,181,39.839,181s55.137-37.309,93.622-94S479.138,252,479.138,252Z"/>
  <path id="highlights" class="cls-6" d="M815,621c-2.289-17.211,17.685-29.691,34-8,19.7,16.023,22.542,64.235,7,80-24.09,27.434-59.609,36.281-73,16-7.27-15.344-1.142-21.14,11.031-25.34,10.488-3.619,25.344,3.36,32.969-19.66C833.645,643.941,817.016,647.984,815,621Zm11-96c-8.867,19.742,11.784,34.442,28,22,6.059-4.648,17.375-8.1,27-27s5.633-29.418,4-42-17.453-34.477-35-44c-19.215-10.429-40.118-8.238-38,16,10.44,23.688,36.164,12.234,35,40C846.309,517.688,834.867,505.258,826,525ZM809,375c13.18-16.508,12.691-27.633,12-40s-8.977-33.832-16-40-26.215-15.223-35,8c-2.715,17.3,15.445,17.77,12,34s-10.426,18.8-6,29S790.289,385.855,809,375ZM710,855c16.883,2.535,26.277-5.219,38-18s16.473-24.449,18-41-3.387-27.594-10-39-33.312-15.484-36,5,7.41,20.781,5,31-3.27,17.117-12,21-23.664,4.367-23,24C689.117,848.023,693.937,852.588,710,855ZM540,929c2.379,10.891,10.057,11.441,21,13,16.457,2.344,30.478-1.682,41-11,16.908-14.972,22.922-32.027,22-50-0.623-12.156-9.395-17.266-19-17-8.992.249-16.938,5.616-18,13-2.271,15.8-11.616,27.275-27,29C549.643,907.161,536.508,913.012,540,929ZM687,282c1.141,13.031,27.133,19.012,32-1,2.562-23.422-3.551-46.762-15-67-10.344-18.086-40.707-8.578-35,9C680.324,254.27,686.441,271.723,687,282ZM453,263c-4.453-9.273-12.906-15.656-24-13s-15.105,15.1-11,24,16.969,13.488,25,10S457.453,272.273,453,263ZM358,429c8.011-3.672,74.055-101.133,75-111s-0.121-18.879-12-24-18.559-1.27-26,11c-5.511,9.086-29.24,49.221-35,57-12.148,16.406-28.316,30.535-32,43S335.254,439.426,358,429Z"/>
  <path id="mouth" class="cls-7" d="M567,764c21.988-4.676,17,34,17,34s-58.52-5.293-81-2c-15.57,2.785-37-25-37-25S545.012,768.676,567,764Z"/>
  <g id="eyes">
    <g id="left_eye" data-name="left eye">
      <path id="eyeball" class="cls-7" d="M329,595s41.016,14.387,53,18,51,9,51,9-2.816,27.438-17,40-37.586,19.281-65,8C316.809,648.7,329,595,329,595Z"/>
      <circle id="pupil" class="cls-8" cx="388" cy="629" r="6"/>
      <path id="eyebrow" class="cls-9" d="M296,545s85.406,60.668,163,56c-1.09,18.57-5.227,16.812-13,26-66.262-6.684-119.645-29.441-158-56C284.793,550.039,296,545,296,545Z"/>
    </g>
    <g id="right_eye" data-name="right eye">
      <path id="eyeball-2" data-name="eyeball" class="cls-7" d="M680,603s-41.016,14.387-53,18-51,9-51,9,2.816,27.438,17,40,37.586,19.281,65,8C692.191,656.7,680,603,680,603Z"/>
      <circle id="pupil-2" data-name="pupil" class="cls-8" cx="621" cy="637" r="6"/>
      <path id="eyebrow-2" data-name="eyebrow" class="cls-9" d="M713,553s-85.406,60.668-163,56c1.09,18.57,5.227,16.812,13,26,66.262-6.684,119.645-29.441,158-56C724.207,558.039,713,553,713,553Z"/>
    </g>
    <path id="brow" class="cls-2" d="M486,582c0.738-6.746,16.9-4.134,17-26,10.285-14.414,22-7,22-7s-2.426,25.895,8,39c6.632,8.337-14.824,18.992-25,18S484.82,592.786,486,582Z"/>
  </g>
</svg>
