<?xml version="1.0" encoding="utf-8"?>
<!-- Generator: Adobe Illustrator 16.0.0, SVG Export Plug-In . SVG Version: 6.00 Build 0)  -->
<!DOCTYPE svg PUBLIC "-//W3C//DTD SVG 1.1//EN" "http://www.w3.org/Graphics/SVG/1.1/DTD/svg11.dtd">
<svg version="1.1" id="player-model" xmlns="http://www.w3.org/2000/svg" xmlns:xlink="http://www.w3.org/1999/xlink" x="0px"
	 y="0px" width="100px" height="100px" viewBox="0 0 100 100" enable-background="new 0 0 100 100" xml:space="preserve">
<svg id="Left" xmlns="http://www.w3.org/2000/svg" width="50" height="100" viewBox="0 500 1000 1000">
  <defs>
    <style>
      .cls-1 {
        fill: #333;
      }

      .cls-1, .cls-2, .cls-3, .cls-4, .cls-5, .cls-6, .cls-7, .cls-8 {
        fill-rule: evenodd;
      }

      .cls-2 {
        fill: #9ad14b;
      }

      .cls-3 {
        fill: #d64394;
      }

      .cls-4 {
        fill: #bc3987;
      }

      .cls-5 {
        fill: none;
        stroke: #333;
        stroke-linecap: round;
        stroke-linejoin: round;
        stroke-width: 34px;
      }

      .cls-6, .cls-8 {
        fill: #fff;
      }

      .cls-6 {
        stroke: #363636;
        stroke-width: 22px;
      }

      .cls-7 {
        fill: #363636;
      }
    </style>
  </defs>
  <g id="leaf_copy" data-name="leaf copy">
    <path id="leaves_outline" data-name="leaves outline" class="cls-1" d="M318.242,412.5s58.528-3.918,129.172-37.9c66.6-32.042,89.675-48.5,145.559-94.264,79.247-64.9,43.352-135.372,43.352-135.372s-7.022-37.879-47.042-69.426-72.344-40.1-103.356-33.92S426.1,58.476,397.772,90.951C383.5,107.314,349.628,161.49,327.634,224.26c-21.655,61.8-31.606,132.027-24.611,171.2C305.014,407.013,318.242,412.5,318.242,412.5Z"/>
    <path id="leaves" class="cls-2" d="M337.568,375.174s11.165-124.474,56.2-212.146C428.893,78.289,506.661,62.192,560.943,96.5c6.87,4.343,18.258,9.218,14.728,14.7-45.974,3.29-69.187-9.718-143.071,88.728-4.969,10.539,7.271,25.715,24.646,22.546,11.958-11.212,36.949-51.55,63.35-69.746,20-13.785,42.066-10.672,56.658,1.075,10.538,8.483,41.03,32.522,17.872,72.359-9.756,16.784-19.889,30.569-104.442,84.77S337.568,375.174,337.568,375.174Z"/>
  </g>
  <g id="face">
    <g id="berry">
      <path id="colour" class="cls-3" d="M849.438,386.821c67.972,28.018,102.741,120.827,30.4,191.293,61.266,94.515-19.949,178.531-77.894,181.823C813.564,830.229,749.8,900.825,668,888.728c-31.994,78.431-109.8,99.457-167.187,69.131-56.194,29.6-141.877,13.006-166.237-68.184C247.95,902.464,171.63,840.561,197.79,760.884c-96.277-11.741-126.459-130.308-75.044-180.876-56.573-35.645-65.812-157.016,26.6-194.134-22.65-54.87,6.13-153.269,107.341-155.307,28.452-97.24,155.135-138.506,227.032-42.615,14.565-1.464,20.081.441,35.147,0C568.781,105.479,705.273,115.862,744,229.62,836.178,233.073,874.564,315.993,849.438,386.821Z"/>
      <path id="shade" class="cls-4" d="M306.863,580.855C231.543,528.555,279.219,437.4,310,438c-14.906-29.82.651-79.7,42-60,58.388-28.218,150.523-90.045,143-87,12.321,30.162,84.88,98.306,270,107,26.825,1.26,43-46,43-46s-141.925-18.785-73-106c-12.679-36.5-36.5-84.46-89-94-51.594-9.376-108.806,26.292-139,57-30.881-27.173-95.273-78.226-159-63-63.127,15.082-90.611,61.411-88,96-82.481-4.694-147.061,63.22-105,147-93.165,11.336-98.809,137.008-18,190-70.734,55.332-26.613,186.105,69,177-26.41,86.32,36.2,135.037,133,126,9.06,30.276,26.221,51.454,45,67,28.075,23.241,74.35,21.737,118-1,11.527,17.414,34.361,17.512,61.859,17.512v-0.731c-40.816-20.936-43.914-27.469-45.543-76.824-101.625,23.731-167.375-55.785-125.582-133.715C361.215,752.773,345.85,765.78,291,721,258.941,670.839,278.434,613.77,306.863,580.855Z"/>
      <path id="outline" class="cls-5" d="M849.438,386.821c67.972,28.018,102.741,120.827,30.4,191.293,61.266,94.515-19.949,178.531-77.894,181.823C813.564,830.229,749.8,900.825,668,888.728c-31.994,78.431-109.8,99.457-167.187,69.131-56.194,29.6-141.877,13.006-166.237-68.184C247.95,902.464,171.63,840.561,197.79,760.884c-96.277-11.741-126.459-130.308-75.044-180.876-56.573-35.645-65.812-157.016,26.6-194.134-22.65-54.87,6.13-153.269,107.341-155.307,28.452-97.24,155.135-138.506,227.032-42.615,14.565-1.464,20.081.441,35.147,0C568.781,105.479,705.273,115.862,744,229.62,836.178,233.073,874.564,315.993,849.438,386.821Z"/>
    </g>
    <g id="leaf">
      <path id="leaves_outline_copy" data-name="leaves outline copy" class="cls-1" d="M883.306,363.706S811.7,360.23,735,344c-72.308-15.3-129.64-46.278-163-68-60.06-39.107-57.684-104.729-57.684-104.729s-5.723-30.342,25.657-70.494,60.747-56.137,92.339-57.5,62.115,2.164,97.351,26.978c17.754,12.5,63.523,57.082,99.8,112.83,35.719,54.889,62.068,120.739,64.579,160.455C894.851,355.23,883.306,363.706,883.306,363.706Z"/>
      <path id="leaves-2" data-name="leaves" class="cls-2" d="M855.666,332.036S815.249,213.778,750.673,139.315C696.425,65.347,617.059,68.185,572.481,114.4c-5.642,5.851-15.545,13.291-10.815,17.778C605.295,118.675,618.8,93.763,697.419,156.1c7.331,9.057.891,25.8-17.755,21.88-14.279-8.051-29.963-28.355-57.4-31.77-24.105-3-40.631,12.854-52.015,27.731C552.1,209.458,576.8,256.634,691.67,296.005,786.678,328.568,855.666,332.036,855.666,332.036Z"/>
    </g>
    <g id="leaf-2" data-name="leaf">
      <path id="leaves_outline-2" data-name="leaves outline" class="cls-1" d="M256.162,474.459s57.025-13.748,120.913-59.177c60.234-42.83,80.195-62.947,127.546-117.495S530,187,530,187L529.489,14.343S523.357,0.785,512.068.717c-13.962-.084-20.829,13.05-20.829,13.05L493,123s-11.42-15.15-26.607-26.445c-44.773-24.335-78.077-27.3-107.6-15.975s-56.116,26.72-78.556,63.513c-11.307,18.54-35.537,77.658-46.613,143.241-10.906,64.573-8.853,135.469,4.659,172.9C242.2,471.282,256.162,474.459,256.162,474.459Z"/>
      <path id="leaves-3" data-name="leaves" class="cls-2" d="M268.9,434.4s-10.02-124.572,19.562-218.591C308.772,126.357,382.7,97.356,442,122c7.5,3.119,19.553,6,17,12-44.758,11.008-69.835,2.107-126.029,111.618-3.118,11.228,11.51,24.117,28.1,18.06,9.892-13.071,27.711-57.05,50.659-79.444,17.385-16.965,39.659-17.624,56.026-8.511,11.819,6.582,45.933,25.125,29.837,68.3-6.782,18.191-14.441,33.489-88.623,101.193S268.9,434.4,268.9,434.4Z"/>
    </g>
    <path id="mouth" class="cls-6" d="M402,764c21.988-4.676,17,34,17,34s-58.52-5.293-81-2c-15.57,2.785-37-25-37-25S380.012,768.676,402,764Z"/>
    <g id="eyes">
      <g id="left_eye" data-name="left eye">
        <path id="eyeball" class="cls-6" d="M418,595s-41.016,14.387-53,18-51,9-51,9,2.816,27.438,17,40,37.586,19.281,65,8C430.191,648.7,418,595,418,595Z"/>
        <path id="pupil" class="cls-6" d="M357.5,623c2.485,0,4.5,2.686,4.5,6s-2.015,6-4.5,6-4.5-2.686-4.5-6S355.015,623,357.5,623Z"/>
        <path id="eyebrow" class="cls-7" d="M451,545s-85.406,60.668-163,56c1.09,18.57,5.227,16.812,13,26,66.262-6.684,119.645-29.441,158-56C462.207,550.039,451,545,451,545Z"/>
      </g>
      <g id="right_eye" data-name="right eye">
        <path id="eyeball-2" data-name="eyeball" class="cls-6" d="M155.809,595.457s28.771,16.766,37.178,21.075,35.775,11.959,35.775,11.959-1.976,27.274-11.925,39.014-26.365,17.1-45.595,4.228C147.258,648.448,155.809,595.457,155.809,595.457Z"/>
        <path id="pupil-2" data-name="pupil" class="cls-6" d="M188.379,622.176c-2.214-.61-4.01,1.582-4.01,4.9s1.8,6.494,4.01,7.1,4.01-1.583,4.01-4.9S190.593,622.785,188.379,622.176Z"/>
        <path id="eyebrow-2" data-name="eyebrow" class="cls-7" d="M132.661,543.542S192.571,609.165,247,609c-0.764,18.507-3.666,16.509-9.119,25.246-46.48-10.529-83.927-36.384-110.832-65.169C124.8,547.93,132.661,543.542,132.661,543.542Z"/>
      </g>
      <path id="brow" class="cls-4" d="M263,584c-0.738-6.746,0-25,0-25s-42.9-37.188-39-8-22.684,22.434-21,42c0.688,5.617,38,15,38,15S264.18,594.786,263,584Zm0,141c-0.738-6.746-16.9-4.134-17-26-10.285-14.414-22-7-22-7s2.426,31.895-8,45c-6.632,8.337,25,12,25,12S264.18,735.786,263,725Z"/>
    </g>
    <path class="cls-8" d="M760,503c-3.245,39.9-29.141,44.471-50,32-3.349-2.708,16.263-25.527,7-56.088C696.749,412.109,763.991,453.014,760,503Zm115,9c21.5-7.56,13.5-57.107-25-78-19.215-10.429-41.957,11.934-25,24,6.791,4.832,19.918,14.6,27,25C862.6,498.574,866.979,514.82,875,512ZM692,852c11.9,12.789,36.2,11.5,56-15s25.98-71.082-18-65c-21.571,2.983-7.211,26.922-14,43C705.413,840.073,680.1,839.211,692,852ZM540,929c2.379,10.891,10.057,11.441,21,13,16.457,2.344,30.478-1.682,41-11,16.908-14.972,22.922-32.027,22-50-0.623-12.156-9.395-17.266-19-17-8.992.249-16.938,5.616-18,13-2.271,15.8-11.616,27.275-27,29C549.643,907.161,536.508,913.012,540,929ZM729.519,171.063c8.236,9.083,29.383-.8,19.561-17.148-9.808-21.423-27.023-38.328-47.229-49.834C680.024,94.043,671.3,115.929,685.215,128.1,710.969,149.137,719.764,160.3,729.519,171.063Zm86.993,544.411c8.189,7.565,14.8,3.618,24.66-1.374,14.832-7.506,24.018-18.837,27.306-32.5,5.282-21.958.442-39.382-10.609-53.586-7.474-9.606-17.591-8.771-25.312-3.051-7.228,5.355-10.667,14.306-7.307,20.967,7.188,14.251,6.1,29.011-5.519,39.237C811.906,692.05,804.491,704.369,816.512,715.474ZM458,200a20,20,0,1,1-20,20A20,20,0,0,1,458,200ZM365,313c-9.963,7.147,3.636,33.895,21,26,22.4-7.3,49.266-41.237,63-60,12.46-20.54-22.327-28.435-36-16C389.16,286.188,376.8,304.535,365,313Z"/>
  </g>
</svg>

<path fill="none" stroke="#000000" stroke-width="3" stroke-miterlimit="10" d="M66.733,98.277c-4.96,0-14.006-8.748-18.354-14.543"
	/>
<line fill="none" stroke="#000000" stroke-width="3" stroke-miterlimit="10" x1="98.209" y1="96.521" x2="66.734" y2="98.277"/>
<line fill="none" stroke="#000000" stroke-width="3" stroke-miterlimit="10" x1="96.396" y1="90.038" x2="66.734" y2="98.277"/>
<line fill="none" stroke="#000000" stroke-width="3" stroke-miterlimit="10" x1="76.223" y1="83.734" x2="48.38" y2="83.734"/>
<line fill="none" stroke="#000000" stroke-width="3" stroke-miterlimit="10" x1="74.137" y1="94.158" x2="48.38" y2="83.734"/>
</svg>
