<svg xmlns="http://www.w3.org/2000/svg" xmlns:xlink="http://www.w3.org/1999/xlink" width="800" height="400" viewBox="0 0 800 400">
  <defs>
    <style>
      .cls-1 {
        fill: #c5b2cb;
        stroke: #a57dca;
        stroke-width: 2px;
      }

      .cls-1, .cls-2, .cls-3, .cls-4, .cls-5 {
        fill-rule: evenodd;
      }

      .cls-2 {
        fill: #736357;
        stroke: #362f2d;
        stroke-width: 3px;
      }

      .cls-3 {
        fill: #8dc63f;
        stroke: #197b30;
        stroke-width: 4.68px;
      }

      .cls-4 {
        fill: #fff;
        fill-opacity: 0.76;
        stroke: #fffbb3;
        stroke-width: 20px;
      }

      .cls-5 {
        fill: #007236;
        stroke: #033;
        stroke-width: 4px;
      }
    </style>
  </defs>
  <rect width="800" height="400" fill="#BEd6e9"/>
  <path id="m_ountains" data-name="m ountains" class="cls-1" d="M800,403.739c-3.838-14.721,6.23-59.4-15.721-100.774-23.561-44.413-79.448-85.023-90.254-80.7C649.264,244.567,629.528,272.2,579.95,292c-17.8,6.467-39.2,47.579-56.519,39.7-39.856-23.9-54.98-62.763-69.492-104.088-4.084-11.632-4.694-30.884-13.953-40.143-57.01,0-48.665-5.348-94.258,44.565-8.094,8.861-27.159,41.023-46.971,50.677-21.587,10.519-45.473-19.635-60.826-27.857-52.29-28-99.024-64.546-153.88-88.065-15.918-5.7-31.842,18.607-47.76,12.911C21.972,175.279,0,133.754,0,133.754V408.291"/>
  <path id="tre" class="cls-2" d="M603,361l20-97s21.519-98.385-10-115-32-17-32-17l-48,4s-17.544-2.305,8-11c4.875-1.659,39.963-10.647,62.342-11.386C613.751,113.27,621.41,122.547,622,121c3.712-8.715,9.384-46.718,14.388-42.092C642.135,84.221,647,133,647,133l62-1-7,14s-16.111-3.613-30.733-1.447C659.12,146.353,648,154,648,154l1,18s4.254,48.4-1.836,99.7C640.3,329.512,623,391,623,391Z"/>
  <path id="grass" class="cls-3" d="M-1.373,386.772c0-3.741,3.893-13.59,14.651-15.565h3.936q-0.613,4.573-1.226,9.149h0.846l5.737-6.6h1.2q-0.33,5.436-.661,10.874l2.01,0.075,3.59-3.969H29.4l0.643,2.335,0.932,0.062,6.266-5.787,1.192,4.393h0.9l1.3-.858,1.231,1.736,3.387,0.151c5.519-15.062,42.974-15.836,47.345-12.959,0.012,10.494-18.319,3.586,16.994,10.137,10.387,1.927-32.406,13.2-5.007,13.2q0.2-.612.4-1.224c22.047,0,39.946,3.238,61.409-.651,24.059-6.342,13.292-8.04,24-13.884l8.47-.5-7.028,4.628c5.292,0,13.6-11.6,15.145-14l1.078-.776,4.508,5.517c12.435,1.5,47.872,3.576,57.179,6.947H269.9q-0.78-1.812-1.562-3.625L253.5,374.222l9.512,0.4-4.55-2.334,5.453,0.1,6.131-4.2h0.723c10.339,2.5,15.719,6.436,29.195,8.062l9.129-.2,1.8-2.939q-0.009,1.554-.02,3.108l2.746-1.716c11.165-8.245,23.211-15.913,33.5-3.014,10.982,13.772,12.677,8.83,15.364,5.919,4.9,1.775,10.272,6.516,11.787,12.369,3.447,0.624,17.117,2.806,21,1.378,1.327,20.451-2.291-3.179-2.291-18.757,0,1.242,2.074,1.607,5.079,1.607l4.331-3.48c0.131,10.278-.875,16.115,1.237,8.808-8.43,3,38.472,21.97,38.472,21.97,14.609,0,22.729-7.6,37.338-7.6,0.076,0,6.645,7.6,6.721,7.6h-1.6l25.092-.7c14.6-7.408,23.1-14.8,35.156-22.5l4.475-2.962c1.588,0-2.623,12.656,3.134,12.656,3.307-.607,5.084-11.72,12.93-13.626l1.63-.077,4.05,2.762,2.254,0.151c2.783-2.531,24.32-16.916,32.717-16.916,5.767,3.133,6.78,12.156,21.179,12.156q1.282-2.129,2.564-4.259c0,10.045,60.616,8.333,60.616,8.333s6.58-25.609,60.731-25.609c2.345,2.548.817,0.122-2.528,5.939s3.719,14.387,5.579,21.579l7.554,8.879q7.213-14.157,14.427-28.317c9.014-13.485,22.195-24.966,22.195-38.794V401.3H-1.378V381.04l-2,4.695"/>
  <path id="sun" class="cls-4" d="M145-45c55.228,0,100,32.907,100,73.5S200.228,102,145,102,45,69.093,45,28.5,89.772-45,145-45Z"/>
  <path id="leaves" class="cls-5" d="M561,134s20.728,13.551,18,21-20.221,18.338-39.378,16.763c-15.912-1.307-52.3-38.935-64.342-61.378A125.19,125.19,0,0,1,462,67c-0.539-4.917.386-29.489,6-32,8.33-3.727,23,10,23,10a206.347,206.347,0,0,1-.781-26.342C491.05,3.424,498-4,498-4L612-6s39.617-2.647,73.513,12.2C710.855,17.3,733,47,733,47c34.975,33.937,23.527,56.749,32.954,82.207C785.711,182.563,799,223,799,223s-18.938,25.467-45,27c-59.279,3.487-69.355-61.433-70.1-74.162C682.436,150.654,691,126,691,126s-15.269,12.111-30.4,4.293C645.734,122.612,631,95,631,95s-18.756-5.521-36.421-1.3c-7.98,1.906-5.737,11.487-11.442,20.462C577.6,122.866,564,111,564,111Z"/>
</svg>
