<?xml version="1.0" encoding="utf-8"?>
<!-- Generator: Adobe Illustrator 16.0.0, SVG Export Plug-In . SVG Version: 6.00 Build 0)  -->
<!DOCTYPE svg PUBLIC "-//W3C//DTD SVG 1.1//EN" "http://www.w3.org/Graphics/SVG/1.1/DTD/svg11.dtd">
<svg version="1.1" id="player-model" xmlns="http://www.w3.org/2000/svg" xmlns:xlink="http://www.w3.org/1999/xlink" x="0px"
	 y="0px" width="75px" height="100px" viewBox="0 0 75 100" enable-background="new 0 0 75 100" xml:space="preserve">
<svg xmlns="http://www.w3.org/2000/svg" width="50" height="100" viewBox="0 500 1000 1000">
  <defs>
    <style>
      .cls-1 {
        fill: #ffd141;
      }

      .cls-1, .cls-10, .cls-12, .cls-13, .cls-2, .cls-3, .cls-4, .cls-5, .cls-6, .cls-7, .cls-9 {
        fill-rule: evenodd;
      }

      .cls-2 {
        fill: #dbb53e;
      }

      .cls-11, .cls-3, .cls-9 {
        fill: #333;
      }

      .cls-3 {
        fill-opacity: 0.28;
      }

      .cls-10, .cls-13, .cls-4, .cls-8 {
        fill: #fff;
      }

      .cls-12, .cls-4, .cls-7 {
        stroke: #333;
        stroke-width: 20px;
      }

      .cls-5 {
        fill: #3777ab;
      }

      .cls-6 {
        fill: #2e638e;
      }

      .cls-7 {
        fill: #9e0b0f;
      }

      .cls-12 {
        fill: none;
      }

      .cls-13 {
        fill-opacity: 0.78;
      }
    </style>
  </defs>
  <g id="yellow_man" data-name="yellow man">
    <path id="main_body_copy" data-name="main body copy" class="cls-1" d="M750.739,275s63.337-.246,76.8,0c46.606,0.852,90.865,33.374,110.706,94,35.462,108.357,13.929,207.262,8.976,230S914.23,719.16,820.553,720s-322.143-1-322.143-1l1,31,220.414-1s1.656,108.619,2,117S706.4,917.627,651,935c-68.9,21.608-113.871,25.988-192.488,20C354.3,947.062,293.2,906.88,279.99,860c-1.352-4.8-.082-3.227-2.992-15s3.1-223.008,2.992-235,22.32-97.406,114.7-96,214.374-.468,241.359,0c58.508,1.016,113.363-69.094,113.7-120C750.244,317.708,750.739,275,750.739,275ZM625.083,807a39,39,0,1,1-38.9,39A38.949,38.949,0,0,1,625.083,807Z"/>
    <path id="body_bottom_copy_2" data-name="body bottom copy 2" class="cls-2" d="M750.739,275s63.337-.246,76.8,0c46.606,0.852,90.865,33.374,110.706,94,35.462,108.357,13.929,207.262,8.976,230S914.23,719.16,820.553,720s-322.143-1-322.143-1l1,31,220.414-1s1.656,108.619,2,117S706.4,917.627,651,935c-68.9,21.608-113.871,25.988-192.488,20C354.3,947.062,293.2,906.88,279.99,860c-1.352-4.8-.082-3.227-2.992-15s3.1-223.008,2.992-235,22.32-97.406,114.7-96,214.374-.468,241.359,0c58.508,1.016,113.363-69.094,113.7-120C750.244,317.708,750.739,275,750.739,275ZM625.083,807a39,39,0,1,1-38.9,39A38.949,38.949,0,0,1,625.083,807ZM774.675,278s63.338-.246,76.8,0c119.361,62.765,99.51,165.491,102.727,284-4.953,22.738-16.031,120.16-109.708,121s-322.144-1-322.144-1l-25.931,31,1,38,222.409-3s1.656,72.619,2,81,8.524,51.627-46.876,69c-68.905,21.608-113.871,25.988-192.488,20-104.219-7.938-165.321-48.12-178.526-95-1.352-4.8-.081-3.227-2.992-15S315,617.992,314.9,606s11.349-63.406,103.725-62S633,546.2,659.98,547c82.188,2.441,123.192-57.949,123.671-190C783.928,280.707,774.675,278,774.675,278Z"/>
    <path id="eyebrow" class="cls-3" d="M455,917c-12.388-5.414-26.427-22.26-38.153-42.871-14.442-25.387-20.582-52.057-12.436-49.319,16.256,37.907,53.861,62.739,77.024,74.129,14.335,9.215,6.4,16.646,1.984,20.742S467.388,922.414,455,917Z"/>
    <path id="yellow_eyeball" data-name="yellow eyeball" class="cls-4" d="M509,861c-14.912,0-30-16.088-30-31a27,27,0,0,1,54,0C533,844.912,523.912,861,509,861Z"/>
  </g>
  <g id="blue_man" data-name="blue man">
    <path id="main_version" data-name="main version" class="cls-5" d="M248.11,725.875s-63.52.246-77.018,0c-46.741-.852-91.127-33.4-111.025-94.06-35.564-108.426-13.97-207.4-9-230.147S84.147,281.43,178.094,280.59s403.074,1,403.074,1l-41-31.02-261.051,1s-1.66-108.689-2-117.075,14.83-49.513,71.016-69.045c67.582-23.493,106.473-26.79,193.044-20.013,104.5,8.18,165.8,48.151,179.041,95.06,1.356,4.8.082,3.229,3,15.01s-3.107,223.151-3,235.151-22.384,97.468-115.026,96.061-215.014-1.168-242.056,0C305.524,489.21,249.685,547.5,249.11,606.8,248.371,683.138,248.11,725.875,248.11,725.875Zm152.029-600.39s13.009,7.472,13.009,29.024a39.009,39.009,0,1,1-78.018,0C335.13,132.957,400.139,125.485,400.139,125.485Z"/>
    <path id="body_top_SVG_version" data-name="body top SVG version" class="cls-6" d="M248.11,725.875s-63.52.246-77.018,0c-46.741-.852-91.127-33.4-111.025-94.06-35.564-108.426-13.97-207.4-9-230.147S84.147,281.43,178.094,280.59s393.074,1,393.074,1l-31-31.02-261.051,1s-1.66-108.689-2-117.075,14.83-49.513,71.016-69.045c67.582-23.493,106.473-26.79,193.044-20.013,104.5,8.18,165.8,48.151,179.041,95.06,1.356,4.8.082,3.229,3,15.01s-3.107,223.151-3,235.151-22.384,97.468-115.026,96.061-215.014-1.168-242.056,0C305.524,489.21,249.685,547.5,249.11,606.8,248.371,683.138,248.11,725.875,248.11,725.875ZM393,108c85.122-14.846,87.632,3.019,50.148,41.509-20.989,21.307-47.465,44.025-69.009,44.025a39.017,39.017,0,0,1-39.009-39.025C335.13,132.957,338.05,117.584,393,108ZM220.092,626.875s-91.127,26.6-111.025-34.06c-35.564-108.426-13.97-207.4-9-230.147s33.082-80.237,127.029-81.078c38.287-.342,287.027,6.947,345.559.3-16.082-14.032-21.485-34.3-21.485-34.3l-34-36.02-189.051,1s-1.66-108.689-2-117.075,14.83-25.513,71.016-45.044c67.582-23.493,193.044,1.987,193.044,1.987s70.461,17.211,100.516,44.834C723.258,122.962,724,158,724,158s-3.857,71.4-2.782,193.66c0.105,12,4.663,97.868-67.026,96.062-92.624-2.333-215.014-1.168-242.056,0C231.763,446.193,220.092,626.875,220.092,626.875Z"/>
    <path id="tongue" class="cls-7" d="M463.188,756c-38.249-23.61-59.585-71.518-54.753-104,3.258-21.906,9.134-36.144,32.851-49,43.91-7.881,59.268,10.2,56.606,37.115-1.463,14.787-11.726,26.593-14.287,40.269,0,10.2,18.407,29.42,18.407,39.616,0,14.251,22.782,34.279,22.782,34.279L483.1,757Z"/>
  </g>
  <circle id="balls" class="cls-8" cx="628" cy="846" r="37"/>
  <path id="yellow_pupil" data-name="yellow pupil" class="cls-9" d="M637,826c6.075,0,11,7.835,11,17.5S643.075,861,637,861s-11-7.835-11-17.5S630.925,826,637,826ZM509,848c-6.075,0-9.068-7.835-9-17.5A11.293,11.293,0,0,1,511,819c3.846,0.157,9.6,5.854,9,15.5C519.44,843.486,515.075,848,509,848Z"/>
  <path id="whites" class="cls-10" d="M403,114c10.5,0.582,17,15.028,17,38.5S400.077,195,375.5,195,336,178.972,336,155.5,378.461,112.64,403,114Z"/>
  <ellipse id="blue_pupil" data-name="blue pupil" class="cls-11" cx="362" cy="163.5" rx="11" ry="17.5"/>
  <path id="outline_copy" data-name="outline copy" class="cls-12" d="M751.952,275s63.5-.246,76.994,0c46.728,0.852,91.1,33.374,110.993,94,35.554,108.357,13.966,207.262,9,230S915.866,719.16,821.947,720s-322.978-1-322.978-1l-29,31,250.983-1,6,60s2.649,36.328-4,57-15.452,51.627-71,69c-69.083,21.608-114.166,25.988-192.986,20-104.489-7.938-165.749-48.12-178.988-95-1.356-4.8-.082-3.227-3-15s3.105-223.008,3-235,22.377-97.406,114.992-96,214.929-.468,241.983,0c58.661,1.016,113.657-69.094,113.993-120C751.455,317.708,751.952,275,751.952,275ZM625.96,807a39,39,0,1,1-39,39A39,39,0,0,1,625.96,807ZM248.1,725.875s-63.516.246-77.012,0c-46.738-.852-91.121-33.4-111.018-94.06-35.562-108.426-13.969-207.4-9-230.147S84.144,281.43,178.085,280.59s398.046,1,398.046,1l-36-31.02-261.033,1s-1.661-108.689-2-117.075,14.828-49.513,71.011-69.045C415.69,41.959,454.578,38.663,541.143,45.44,645.637,53.62,706.93,93.591,720.172,140.5c1.355,4.8.082,3.229,3,15.01s-3.106,223.151-3,235.151-22.383,97.468-115.019,96.061-215-1.168-242.039,0C305.506,489.21,249.67,547.5,249.1,606.8,248.357,683.138,248.1,725.875,248.1,725.875Zm146.019-608.39c23.341-3.31,22.3,17.715,19.007,37.024-3.62,21.247-17.463,39.025-39.006,39.025s-39.8-17.486-39.006-39.025C335.408,146.41,372.786,120.509,394.115,117.485Z"/>
  <path id="highlights" class="cls-13" d="M660.505,140.419c16.047,8.828,37.533,2.348,26.5-18.419-50.5-40.009-96.73-42.715-121-44s-10,19-10,19S647.778,133.418,660.505,140.419ZM170,343c-17.7,16.792-19.435,27.294-26.456,43.482-5.5,0-10.343-24.25-7.258-42.617S152.094,311.059,172,307s69.223-4.684,117,8c14.051,3.73,14.512,18.114-6,20C252.683,337.787,190.282,328.685,170,343ZM451,109c17.77-11.406,18.519-12.1,49-13.4,17.266-9.309-9.37-44.947-102-19.6C430.09,87.848,445.948,101.816,451,109ZM795.263,320.419c-0.161-7.942-.484-23.828-0.484-23.828s50.468-7.9,74.179,23.711c6.67,8.893,14.273,47.531-5.375,47.531-22.3-1.157-11.691-18.711-15.836-31.5S819.736,316.26,795.263,320.419ZM890,440l37,64s-3.484-49.523-8-70-15-45-15-45ZM441,756c-2.872.172-19.549-3.979-39.5-13.885s-22.609-23.384-14.719-39.274C395.067,700.8,406,705,406,705S437.9,728.824,441,756Z"/>
</svg>

<path fill="none" stroke="#000000" stroke-width="3" stroke-miterlimit="10" d="M37.645,47.75C26.642,52.15,24.787,70,24.787,70"/>
<polyline fill="none" stroke="#000000" stroke-width="3" stroke-miterlimit="10" points="24.787,70 25.718,85.795 17.25,100 "/>
<polyline fill="none" stroke="#000000" stroke-width="3" stroke-miterlimit="10" points="24.787,70 34.993,83.775 32,100 "/>
<polyline fill="none" stroke="#000000" stroke-width="3" stroke-miterlimit="10" points="37.645,47.75 24.787,53.146 32.066,69.216 
	"/>
<polyline fill="none" stroke="#000000" stroke-width="3" stroke-miterlimit="10" points="37.645,47.75 43.885,60.248 59.239,60.379 
	"/>
</svg>
